<svg  viewBox="0 0 9 9" fill="none" xmlns="http://www.w3.org/2000/svg">
<g clip-path="url(#clip0_167_86)">
<path d="M6.86666 4.46333C6.86666 6.18 5.66499 7.03833 4.23672 7.53616C4.16193 7.56151 4.08069 7.56029 4.00669 7.53273C2.57499 7.03833 1.37332 6.18 1.37332 4.46333V2.06C1.37332 1.96894 1.40949 1.88161 1.47388 1.81722C1.53827 1.75284 1.6256 1.71666 1.71665 1.71666C2.40332 1.71666 3.26165 1.30466 3.85906 0.782796C3.93179 0.720652 4.02432 0.686508 4.11999 0.686508C4.21566 0.686508 4.30819 0.720652 4.38092 0.782796C4.98176 1.3081 5.83666 1.71666 6.52332 1.71666C6.61438 1.71666 6.70171 1.75284 6.7661 1.81722C6.83048 1.88161 6.86666 1.96894 6.86666 2.06V4.46333Z" stroke="#0A0A0A" stroke-width="0.686667" stroke-linecap="round" stroke-linejoin="round"/>
</g>
<defs>
<clipPath id="clip0_167_86">
<rect width="8.24" height="8.24" fill="white"/>
</clipPath>
</defs>
</svg>
